<svg xmlns="http://www.w3.org/2000/svg" version="1.1" xmlns:xlink="http://www.w3.org/1999/xlink" xmlns:svgjs="http://svgjs.com/svgjs" width="800px" height="800px"><svg width="800px" height="800px" viewBox="0 0 512 512" id="SvgjsSvg1000" version="1.1" xml:space="preserve" xmlns="http://www.w3.org/2000/svg" xmlns:xlink="http://www.w3.org/1999/xlink">

<style type="text/css">
	.st0{fill:#231F20;}
</style>

<g>

<path class="st0" d="M288.5,293.6H266v-22.5c0-5.5-4.5-10-10-10s-10,4.5-10,10v22.5h-22.5c-5.5,0-10,4.5-10,10s4.5,10,10,10H246   v22.5c0,5.5,4.5,10,10,10s10-4.5,10-10v-22.5h22.5c5.5,0,10-4.5,10-10S294,293.6,288.5,293.6z"></path>

<path class="st0" d="M417.5,165.8h-30.4c-6.7-20.6-18.2-39.4-33.6-54.8c-26-26-60.6-40.4-97.5-40.4c-60,0-112.8,38.8-131.1,95.2   H94.5c-16.5,0-30,13.5-30,30v215.7c0,16.5,13.5,30,30,30h323c16.5,0,30-13.5,30-30V195.8C447.5,179.2,434.1,165.8,417.5,165.8z    M256,90.6c31.5,0,61.1,12.3,83.3,34.5c11.6,11.6,20.6,25.5,26.5,40.7H146.1C163.5,120.9,207,90.6,256,90.6z M427.5,411.4   c0,5.5-4.5,10-10,10h-323c-5.5,0-10-4.5-10-10V195.8c0-5.5,4.5-10,10-10h37.9c0,0,0,0,0,0c0,0,0,0,0,0h285.1c5.5,0,10,4.5,10,10   V411.4z"></path>

</g>

</svg><style>@media (prefers-color-scheme: light) { :root { filter: none; } }
</style></svg>