<?xml version="1.0" encoding="utf-8"?>
<!-- Generator: Adobe Illustrator 27.5.0, SVG Export Plug-In . SVG Version: 6.00 Build 0)  -->
<svg version="1.1" xmlns="http://www.w3.org/2000/svg" xmlns:xlink="http://www.w3.org/1999/xlink" x="0px" y="0px"
	 viewBox="0 0 500 500" style="enable-background:new 0 0 500 500;" xml:space="preserve">
<g id="Background_Complete">
	<g>
		<rect y="382.398" style="fill:#EBEBEB;" width="500" height="0.25"/>
		<rect x="322.527" y="401.208" style="fill:#EBEBEB;" width="8.693" height="0.25"/>
		<rect x="150.037" y="388.778" style="fill:#EBEBEB;" width="23.185" height="0.25"/>
		<rect x="402.099" y="394.141" style="fill:#EBEBEB;" width="56.67" height="0.25"/>
		<rect x="42.717" y="394.141" style="fill:#EBEBEB;" width="56.67" height="0.25"/>
		<path style="fill:#EBEBEB;" d="M237.014,337.8H43.915c-3.147,0-5.708-2.561-5.708-5.708V60.66c0-3.147,2.561-5.708,5.708-5.708
			h193.099c3.146,0,5.707,2.561,5.707,5.708v271.432C242.721,335.239,240.16,337.8,237.014,337.8z M43.915,55.203
			c-3.01,0-5.458,2.448-5.458,5.458v271.432c0,3.01,2.448,5.458,5.458,5.458h193.099c3.009,0,5.457-2.448,5.457-5.458V60.66
			c0-3.009-2.448-5.458-5.457-5.458H43.915z"/>
		<path style="fill:#EBEBEB;" d="M453.31,337.8H260.212c-3.147,0-5.707-2.561-5.707-5.708V60.66c0-3.147,2.561-5.708,5.707-5.708
			H453.31c3.148,0,5.708,2.561,5.708,5.708v271.432C459.019,335.239,456.458,337.8,453.31,337.8z M260.212,55.203
			c-3.009,0-5.457,2.448-5.457,5.458v271.432c0,3.01,2.448,5.458,5.457,5.458H453.31c3.01,0,5.458-2.448,5.458-5.458V60.66
			c0-3.009-2.448-5.458-5.458-5.458H260.212z"/>
	</g>
	<g>
		<g>
			<g>
				<rect x="81.084" y="80.059" style="fill:#E6E6E6;" width="134.712" height="118.261"/>
				<path style="fill:#F5F5F5;" d="M230.232,75.459H72.364c-0.739,0-1.337,0.599-1.337,1.337l0,0c0,0.739,0.599,1.337,1.337,1.337
					h157.868c0.739,0,1.337-0.599,1.337-1.337l0,0C231.569,76.057,230.97,75.459,230.232,75.459z"/>
				<rect x="83.755" y="80.059" style="fill:#EBEBEB;" width="137.757" height="118.261"/>
				
					<rect x="101.505" y="78.314" transform="matrix(-1.836970e-16 1 -1 -1.836970e-16 291.8228 -13.4433)" style="fill:#FAFAFA;" width="102.256" height="121.752"/>
				<polygon style="fill:#FFFFFF;" points="135.872,190.318 149.889,88.062 172.061,88.062 158.044,190.318 				"/>
				<polygon style="fill:#FFFFFF;" points="162.807,190.318 176.824,88.062 185.468,88.062 171.451,190.318 				"/>
				
					<rect x="161.873" y="138.682" transform="matrix(-1.836970e-16 1 -1 -1.836970e-16 352.1906 -73.8111)" style="fill:#E6E6E6;" width="102.256" height="1.016"/>
			</g>
			<g style="opacity:0.4;">
				<rect x="78.078" y="73.066" style="fill:#F0F0F0;" width="13.773" height="191.934"/>
				<rect x="86.485" y="73.066" style="fill:#E6E6E6;" width="10.73" height="191.934"/>
				<rect x="91.85" y="73.066" style="fill:#F0F0F0;" width="13.773" height="191.934"/>
				<rect x="100.258" y="73.066" style="fill:#E6E6E6;" width="10.73" height="191.934"/>
				<rect x="105.623" y="73.066" style="fill:#F0F0F0;" width="13.773" height="191.934"/>
			</g>
			<g style="opacity:0.4;">
				<rect x="200.447" y="73.066" style="fill:#F0F0F0;" width="7.937" height="191.934"/>
				<rect x="205.292" y="73.066" style="fill:#E6E6E6;" width="6.183" height="191.934"/>
				<rect x="208.383" y="73.066" style="fill:#F0F0F0;" width="7.937" height="191.934"/>
				<rect x="213.228" y="73.066" style="fill:#E6E6E6;" width="6.183" height="191.934"/>
				<rect x="216.32" y="73.066" style="fill:#F0F0F0;" width="7.937" height="191.934"/>
			</g>
		</g>
		<g>
			<g>
				<g>
					
						<rect x="289.989" y="233.416" transform="matrix(-1.836970e-16 1 -1 -1.836970e-16 672.3876 -133.2113)" style="fill:#F0F0F0;" width="225.621" height="72.343"/>
					
						<rect x="369.592" y="163.444" transform="matrix(-1.836970e-16 1 -1 -1.836970e-16 598.4438 -207.155)" style="fill:#E6E6E6;" width="66.415" height="64.401"/>
					
						<rect x="369.592" y="235.82" transform="matrix(-1.836970e-16 1 -1 -1.836970e-16 670.8207 -134.7782)" style="fill:#E6E6E6;" width="66.415" height="64.401"/>
					
						<rect x="369.592" y="308.197" transform="matrix(-1.836970e-16 1 -1 -1.836970e-16 743.1974 -62.4015)" style="fill:#E6E6E6;" width="66.415" height="64.401"/>
					
						<rect x="389.127" y="182.979" transform="matrix(-1.836970e-16 1 -1 -1.836970e-16 617.9789 -226.6902)" style="fill:#E0E0E0;" width="66.415" height="25.331"/>
					
						<rect x="389.127" y="255.356" transform="matrix(-1.836970e-16 1 -1 -1.836970e-16 690.3558 -154.3134)" style="fill:#E0E0E0;" width="66.415" height="25.331"/>
					<g>
						<g>
							<rect x="407.793" y="202.323" style="fill:#F0F0F0;" width="17.546" height="26.529"/>
							
								<rect x="400.384" y="202.323" transform="matrix(-1 -1.224647e-16 1.224647e-16 -1 808.1767 431.1748)" style="fill:#E0E0E0;" width="7.409" height="26.529"/>
							<g>
								<rect x="381.552" y="209.222" style="fill:#F0F0F0;" width="22.537" height="19.63"/>
								
									<rect x="372.036" y="209.222" transform="matrix(-1 -1.224647e-16 1.224647e-16 -1 753.5882 438.0743)" style="fill:#E0E0E0;" width="9.515" height="19.63"/>
							</g>
						</g>
					</g>
					
						<rect x="389.127" y="327.732" transform="matrix(-1.836970e-16 1 -1 -1.836970e-16 762.7325 -81.9365)" style="fill:#E0E0E0;" width="66.415" height="25.331"/>
					
						<rect x="243.996" y="259.767" transform="matrix(-1.836970e-16 1 -1 -1.836970e-16 626.3944 -87.2182)" style="fill:#F5F5F5;" width="225.621" height="19.643"/>
				</g>
				<rect x="379.953" y="334.667" style="fill:#F0F0F0;" width="47.836" height="38.936"/>
				
					<rect x="370.598" y="334.667" transform="matrix(-1 -1.224647e-16 1.224647e-16 -1 750.5505 708.269)" style="fill:#E0E0E0;" width="9.355" height="38.936"/>
				<rect x="376.888" y="270.333" style="fill:#FAFAFA;" width="42.505" height="30.896"/>
				
					<rect x="370.599" y="270.333" transform="matrix(-1 -1.224647e-16 1.224647e-16 -1 747.4869 571.5622)" style="fill:#F0F0F0;" width="6.29" height="30.896"/>
			</g>
			<g>
				<g>
					
						<rect x="213.871" y="233.416" transform="matrix(-1.836970e-16 1 -1 -1.836970e-16 596.2695 -57.0933)" style="fill:#F0F0F0;" width="225.621" height="72.343"/>
					
						<rect x="293.474" y="163.444" transform="matrix(-1.836970e-16 1 -1 -1.836970e-16 522.3257 -131.037)" style="fill:#E6E6E6;" width="66.415" height="64.401"/>
					
						<rect x="293.474" y="235.82" transform="matrix(-1.836970e-16 1 -1 -1.836970e-16 594.7026 -58.6601)" style="fill:#E6E6E6;" width="66.415" height="64.401"/>
					
						<rect x="293.474" y="308.197" transform="matrix(-1.836970e-16 1 -1 -1.836970e-16 667.0793 13.7167)" style="fill:#E6E6E6;" width="66.415" height="64.401"/>
					
						<rect x="313.009" y="182.979" transform="matrix(-1.836970e-16 1 -1 -1.836970e-16 541.8609 -150.5721)" style="fill:#E0E0E0;" width="66.415" height="25.331"/>
					
						<rect x="313.009" y="255.356" transform="matrix(-1.836970e-16 1 -1 -1.836970e-16 614.2377 -78.1953)" style="fill:#E0E0E0;" width="66.415" height="25.331"/>
					<g>
						<g>
							<rect x="304.664" y="281.948" style="fill:#F0F0F0;" width="17.546" height="19.281"/>
							
								<rect x="297.255" y="281.948" transform="matrix(-1 -1.224647e-16 1.224647e-16 -1 601.9189 583.1767)" style="fill:#E0E0E0;" width="7.409" height="19.281"/>
						</g>
						<g>
							<rect x="320.534" y="262.667" style="fill:#F0F0F0;" width="17.546" height="19.281"/>
							
								<rect x="313.125" y="262.667" transform="matrix(-1 -1.224647e-16 1.224647e-16 -1 633.6595 544.6145)" style="fill:#E0E0E0;" width="7.409" height="19.281"/>
						</g>
						<g>
							<rect x="333.011" y="281.948" style="fill:#F0F0F0;" width="17.546" height="19.281"/>
							
								<rect x="325.603" y="281.948" transform="matrix(-1 -1.224647e-16 1.224647e-16 -1 658.6143 583.1767)" style="fill:#E0E0E0;" width="7.409" height="19.281"/>
						</g>
					</g>
					
						<rect x="313.009" y="327.732" transform="matrix(-1.836970e-16 1 -1 -1.836970e-16 686.6145 -5.8185)" style="fill:#E0E0E0;" width="66.415" height="25.331"/>
					
						<rect x="167.878" y="259.767" transform="matrix(-1.836970e-16 1 -1 -1.836970e-16 550.2763 -11.1001)" style="fill:#F5F5F5;" width="225.621" height="19.643"/>
				</g>
				<rect x="302.218" y="320.878" style="fill:#F0F0F0;" width="39.567" height="52.727"/>
				
					<rect x="294.481" y="320.878" transform="matrix(-1 -1.224647e-16 1.224647e-16 -1 596.6988 694.4841)" style="fill:#E0E0E0;" width="7.738" height="52.727"/>
				<rect x="302.218" y="187" style="fill:#FAFAFA;" width="52.292" height="41.852"/>
				
					<rect x="294.481" y="187" transform="matrix(-1 -1.224647e-16 1.224647e-16 -1 596.6988 415.8521)" style="fill:#F0F0F0;" width="7.738" height="41.852"/>
			</g>
		</g>
		<g>
			<g>
				
					<ellipse transform="matrix(0.2453 -0.9694 0.9694 0.2453 126.72 422.7916)" style="fill:#F5F5F5;" cx="334.915" cy="130.005" rx="9.371" ry="9.371"/>
				<path style="fill:#E0E0E0;" d="M358.732,128.343c0.424,5.158-3.414,9.684-8.572,10.108c-5.158,0.424-9.683-3.413-10.108-8.572
					c-0.424-5.158,3.414-9.684,8.572-10.108C353.782,119.347,358.308,123.185,358.732,128.343z"/>
				
					<ellipse transform="matrix(0.9993 -0.0378 0.0378 0.9993 -4.4352 13.7097)" style="fill:#F5F5F5;" cx="360.008" cy="124.038" rx="9.371" ry="9.371"/>
				
					<ellipse transform="matrix(0.9993 -0.0378 0.0378 0.9993 -4.7212 14.2095)" style="fill:#E0E0E0;" cx="373.072" cy="131.844" rx="9.371" ry="9.371"/>
				
					<ellipse transform="matrix(0.8638 -0.5039 0.5039 0.8638 -13.0027 211.9142)" style="fill:#E0E0E0;" cx="385.419" cy="130.005" rx="9.371" ry="9.371"/>
			</g>
			<g>
				<g>
					<g>
						<path style="fill:#F0F0F0;" d="M400.12,130.749c0,0-1.091,26.029-42.909,26.029c-41.818,0-42.909-26.029-42.909-26.029H400.12
							z"/>
					</g>
				</g>
			</g>
		</g>
		<g>
			<rect x="61.029" y="275.653" style="fill:#F0F0F0;" width="11.56" height="100.267"/>
			<rect x="65.468" y="375.92" style="fill:#F0F0F0;" width="176.997" height="6.353"/>
			
				<rect x="72.589" y="275.653" transform="matrix(-1 -1.224647e-16 1.224647e-16 -1 319.4927 651.5732)" style="fill:#F5F5F5;" width="174.316" height="100.267"/>
			<path style="fill:#F0F0F0;" d="M88.801,320.878h141.891c3.934,0,7.123-3.189,7.123-7.122v-18.639
				c0-3.934-3.189-7.123-7.123-7.123H88.801c-3.934,0-7.122,3.189-7.122,7.123v18.639C81.678,317.69,84.867,320.878,88.801,320.878z
				"/>
			<path style="fill:#F0F0F0;" d="M88.801,363.578h141.891c3.934,0,7.123-3.189,7.123-7.122v-18.639
				c0-3.934-3.189-7.123-7.123-7.123H88.801c-3.934,0-7.122,3.189-7.122,7.123v18.639C81.678,360.389,84.867,363.578,88.801,363.578
				z"/>
			<path style="fill:#F5F5F5;" d="M206.177,306.691h-92.862c-1.24,0-2.255-1.015-2.255-2.255l0,0c0-1.24,1.015-2.255,2.255-2.255
				h92.862c1.24,0,2.255,1.015,2.255,2.255l0,0C208.432,305.677,207.417,306.691,206.177,306.691z"/>
			<path style="fill:#F5F5F5;" d="M206.177,349.391h-92.862c-1.24,0-2.255-1.015-2.255-2.255l0,0c0-1.24,1.015-2.255,2.255-2.255
				h92.862c1.24,0,2.255,1.015,2.255,2.255l0,0C208.432,348.376,207.417,349.391,206.177,349.391z"/>
		</g>
		<g>
			
				<rect x="165.991" y="235.76" transform="matrix(-1 -1.224647e-16 1.224647e-16 -1 348.8913 511.4129)" style="fill:#E0E0E0;" width="16.909" height="39.892"/>
			<rect x="182.9" y="235.76" style="fill:#EBEBEB;" width="10.427" height="39.892"/>
			<polygon style="fill:#E6E6E6;" points="146.567,230.556 165.991,230.556 172.995,275.653 153.571,275.653 			"/>
			<polygon style="fill:#F0F0F0;" points="174.393,230.556 165.991,230.556 172.995,275.653 181.398,275.653 			"/>
			
				<rect x="137.693" y="234.457" transform="matrix(-1 -1.224647e-16 1.224647e-16 -1 294.1619 510.1099)" style="fill:#EBEBEB;" width="18.776" height="41.195"/>
			<rect x="156.469" y="234.457" style="fill:#F5F5F5;" width="9.522" height="41.195"/>
			
				<rect x="131.239" y="241.124" transform="matrix(-1 -1.224647e-16 1.224647e-16 -1 276.0719 516.776)" style="fill:#E0E0E0;" width="13.595" height="34.529"/>
			<rect x="144.833" y="241.124" style="fill:#E6E6E6;" width="9.522" height="34.529"/>
		</g>
	</g>
</g>
<g id="Background_Simple" style="display:none;">
	<g style="display:inline;">
		<path style="fill:#407BFF;" d="M411.529,315.215c42.223-91.031-151.475-58.575-167.6-83.959
			c-24.479-38.536,47.855-76.24,22.035-117.563c-36.324-58.133-97.717-4.165-119.661,16.87
			c-22.163,21.245-67.905,76.63-39.85,125.805c42.852,75.109,93.83,23.551,138.667,53.795c21.144,14.262-1.829,46.534,30.81,69.65
			C332.857,420.129,396.441,347.744,411.529,315.215z"/>
		<path style="opacity:0.9;fill:#FFFFFF;" d="M411.529,315.215c42.223-91.031-151.475-58.575-167.6-83.959
			c-24.479-38.536,47.855-76.24,22.035-117.563c-36.324-58.133-97.717-4.165-119.661,16.87
			c-22.163,21.245-67.905,76.63-39.85,125.805c42.852,75.109,93.83,23.551,138.667,53.795c21.144,14.262-1.829,46.534,30.81,69.65
			C332.857,420.129,396.441,347.744,411.529,315.215z"/>
	</g>
</g>
<g id="Shadow_1_">
	<ellipse id="_x3C_Path_x3E__204_" style="fill:#F5F5F5;" cx="250" cy="416.238" rx="193.889" ry="11.323"/>
</g>
<g id="Navigation">
	<g>
		<path style="fill:#263238;" d="M336.81,355.889h-99.556c-4.645,0-8.063-3.8-7.597-8.444l20.834-207.555
			c0.466-4.645,4.648-8.445,9.292-8.445h99.556c4.644,0,8.063,3.8,7.597,8.445l-20.834,207.555
			C345.636,352.089,341.454,355.889,336.81,355.889z"/>
		<rect x="289.629" y="358.389" style="fill:#407BFF;" width="22.653" height="1"/>
		<rect x="319.726" y="358.389" style="fill:#407BFF;" width="7.224" height="1"/>
		<path style="fill:#407BFF;" d="M334.279,355.889h-99.556c-4.644,0-8.063-3.8-7.597-8.444l20.834-207.555
			c0.466-4.645,4.648-8.445,9.292-8.445h99.556c4.645,0,8.063,3.8,7.597,8.445l-20.834,207.555
			C343.105,352.089,338.923,355.889,334.279,355.889z"/>
		<g style="opacity:0.4;">
			<defs>
				<path id="SVGID_1_" style="opacity:0.4;" d="M331.583,352.111h-93.406c-4.427,0-7.686-3.623-7.242-8.05l20.155-200.789
					c0.444-4.428,4.431-8.05,8.858-8.05h93.406c4.427,0,7.686,3.622,7.242,8.05l-20.155,200.789
					C339.997,348.489,336.011,352.111,331.583,352.111z"/>
			</defs>
			<use xlink:href="#SVGID_1_"  style="overflow:visible;opacity:0.2;fill:#FFFFFF;"/>
			<clipPath id="SVGID_00000057140160810163089870000006578874888886468275_">
				<use xlink:href="#SVGID_1_"  style="overflow:visible;opacity:0.2;"/>
			</clipPath>
			<g style="clip-path:url(#SVGID_00000057140160810163089870000006578874888886468275_);">
				<polygon style="fill:#FFFFFF;" points="187.274,290.525 183.182,288.489 288.008,105.947 292.1,107.984 				"/>
				<polygon style="fill:#FFFFFF;" points="206.404,296.778 202.501,294.436 319.643,118.639 323.547,120.981 				"/>
				<polygon style="fill:#FFFFFF;" points="219.418,335.703 215.46,333.444 353.203,118.297 357.161,120.556 				"/>
				<polygon style="fill:#FFFFFF;" points="282.266,371.052 277.528,370.9 299.735,203.259 304.77,201.166 				"/>
				<polygon style="fill:#FFFFFF;" points="262.393,402.37 258.435,400.111 396.178,184.964 400.136,187.223 				"/>
				<polygon style="fill:#FFFFFF;" points="231.002,136.066 233.905,132.019 429.092,260.406 426.189,264.453 				"/>
				<polygon style="fill:#FFFFFF;" points="237.285,111.43 238.12,110.174 438.963,230.375 438.128,231.631 				"/>
				<polygon style="fill:#FFFFFF;" points="267.319,201.82 268.512,200.026 293.532,215 292.339,216.794 				"/>
				<polygon style="fill:#FFFFFF;" points="297.152,251.623 298.345,249.829 341.545,275.684 340.352,277.478 				"/>
				<polygon style="fill:#FFFFFF;" points="224.359,320.957 225.552,319.162 283.101,353.604 281.908,355.398 				"/>
				<polygon style="fill:#FFFFFF;" points="250.939,175.826 252.722,174.607 268.279,199.161 266.496,200.38 				"/>
				<polygon style="fill:#FFFFFF;" points="262.406,80.108 263.372,78.942 446.572,222.865 445.607,224.031 				"/>
			</g>
		</g>
		<g>
			<path style="fill:#FFFFFF;" d="M307.629,304.806c-0.998,9.941-9.866,18-19.807,18s-17.191-8.059-16.193-18
				c1.819-18.12,20.833-28.222,20.833-28.222S309.448,286.686,307.629,304.806z"/>
			<path style="opacity:0.4;fill:#407BFF;" d="M295.296,304.806c-0.314,3.13-3.106,5.667-6.236,5.667s-5.412-2.537-5.098-5.667
				c0.314-3.13,3.106-5.667,6.236-5.667S295.61,301.676,295.296,304.806z"/>
		</g>
		<path style="fill:#FFFFFF;" d="M293.139,270.889c-0.01,0-0.02,0-0.028-0.001c-0.551-0.015-0.94-0.475-0.87-1.027l8.366-65.284
			c0.209-1.625,0.807-3.236,1.731-4.661l22.401-34.544c0.312-0.482,0.199-1.093-0.253-1.363l-22.934-13.918
			c-0.452-0.274-0.558-0.885-0.235-1.365c0.323-0.479,0.95-0.645,1.402-0.372l22.929,13.915c1.342,0.802,1.68,2.626,0.748,4.063
			l-22.401,34.544c-0.744,1.148-1.226,2.447-1.394,3.756l-8.366,65.284C294.165,270.459,293.678,270.889,293.139,270.889z"/>
		<g>
			<g>
				<path style="fill:#407BFF;" d="M290.127,124.4c0.804-8.008,7.947-14.5,15.956-14.5c8.008,0,13.848,6.492,13.044,14.5
					c-1.465,14.597-16.782,22.734-16.782,22.734S288.661,138.997,290.127,124.4z"/>
				<path style="opacity:0.3;" d="M290.127,124.4c0.804-8.008,7.947-14.5,15.956-14.5c8.008,0,13.848,6.492,13.044,14.5
					c-1.465,14.597-16.782,22.734-16.782,22.734S288.661,138.997,290.127,124.4z"/>
			</g>
			
				<ellipse transform="matrix(0.7246 -0.6891 0.6891 0.7246 -1.8419 244.1902)" style="fill:#407BFF;" cx="304.627" cy="124.4" rx="9.612" ry="8.695"/>
		</g>
	</g>
</g>
<g id="Character_1_">
	<g>
		<path style="fill:#FFC3BD;" d="M173.239,180.607c-0.306,0.838-0.666,1.9-0.995,2.874c-0.334,0.997-0.647,2.011-0.952,3.028
			c-0.628,2.031-1.223,4.083-1.76,6.153c-0.537,2.071-1.041,4.154-1.525,6.245l-0.681,3.148l-0.324,1.579l-0.075,0.371l-0.035,0.213
			c-0.036,0.122-0.033,0.348-0.056,0.519c-0.086,1.608,0.145,3.734,0.481,5.766c0.323,2.066,0.755,4.169,1.217,6.277
			c0.945,4.208,1.993,8.488,3.075,12.707l-3.97,1.496c-1.976-4.067-3.719-8.173-5.22-12.451c-0.756-2.136-1.439-4.309-2.035-6.562
			c-0.293-1.126-0.551-2.282-0.771-3.482c-0.215-1.206-0.4-2.44-0.418-3.87c0.009-0.38-0.011-0.709,0.033-1.134l0.055-0.61
			l0.054-0.447l0.213-1.689c0.134-1.128,0.317-2.248,0.489-3.371c0.381-2.239,0.771-4.481,1.294-6.698
			c0.508-2.22,1.05-4.436,1.687-6.637c0.332-1.097,0.672-2.192,1.042-3.288c0.371-1.119,0.738-2.143,1.24-3.361L173.239,180.607z"/>
		<path style="fill:#FFC3BD;" d="M167.467,230.353l-1.401,5.931l3.717,4.382c0,0,4.934-14.319-0.274-13.631L167.467,230.353z"/>
		<path style="fill:#407BFF;" d="M187.384,408.178c-0.774,0-1.621-0.16-2.214-0.3c-0.077-0.018-0.137-0.08-0.151-0.159
			c-0.015-0.078,0.019-0.157,0.084-0.2c0.285-0.189,2.812-1.83,3.792-1.389c0.155,0.07,0.35,0.223,0.4,0.558
			c0.067,0.444-0.04,0.798-0.318,1.054C188.622,408.068,188.029,408.178,187.384,408.178z M185.729,407.595
			c1.461,0.291,2.557,0.241,2.978-0.146c0.179-0.164,0.243-0.395,0.196-0.706c-0.025-0.167-0.103-0.222-0.168-0.251
			C188.219,406.26,186.759,406.968,185.729,407.595z"/>
		<path style="fill:#407BFF;" d="M185.216,407.884c-0.035,0-0.069-0.009-0.1-0.027c-0.061-0.036-0.099-0.101-0.1-0.172
			c-0.001-0.102-0.014-2.514,0.889-3.32c0.24-0.214,0.521-0.303,0.837-0.265c0.497,0.06,0.635,0.373,0.673,0.553
			c0.198,0.944-1.307,2.751-2.101,3.204C185.283,407.875,185.249,407.884,185.216,407.884z M186.607,404.488
			c-0.163,0-0.307,0.057-0.437,0.174c-0.539,0.481-0.712,1.835-0.75,2.638c0.79-0.636,1.727-1.994,1.606-2.569
			c-0.02-0.094-0.075-0.206-0.329-0.237C186.667,404.49,186.637,404.488,186.607,404.488z"/>
		<path style="fill:#263238;" d="M187.498,164.149c0.75-0.045-0.513-2.347-0.872-2.531c-0.828-0.424-9.734,0.84-9.305,2.22
			c0.196,0.591,0.722,1.71,1.208,2.016C179.015,166.16,180.924,164.42,187.498,164.149z"/>
		<path style="fill:#263238;" d="M181.471,169.6c-0.247,0.709-2.119-1.132-2.198-1.527c-0.183-0.912,3.457-9.139,4.668-8.35
			c0.515,0.349,1.449,1.16,1.611,1.711C185.713,161.984,183.52,163.349,181.471,169.6z"/>
		<path style="fill:#FFC3BD;" d="M183.395,148.067c1.023,4.97,3.176,15.037-0.269,18.354c0,0,1.408,5.042,10.644,5.042
			c10.155,0,4.804-5.041,4.804-5.041c-5.556-1.324-5.453-5.436-4.526-9.298L183.395,148.067z"/>
		<path style="fill:#263238;" d="M180.758,168.407c-1.446,0.054,0.549-4.596,1.202-5.015c1.509-0.968,18.823-0.196,18.256,2.53
			c-0.266,1.169-1.066,3.413-1.942,4.09C197.399,170.688,193.414,167.707,180.758,168.407z"/>
		<path style="fill:#263238;" d="M203.465,137.413c0.123,0,0.244-0.057,0.32-0.164c1.023-1.433,2.486-1.379,2.5-1.378
			c0.222,0.01,0.404-0.158,0.412-0.377c0.009-0.219-0.162-0.405-0.381-0.416c-0.077-0.004-1.908-0.073-3.178,1.705
			c-0.127,0.178-0.085,0.426,0.094,0.554C203.303,137.389,203.385,137.413,203.465,137.413z"/>
		<path style="fill:#FF5652;" d="M205.734,142.184c0,0,1.061,2.951,2.281,4.403c-0.916,0.797-2.421,0.357-2.421,0.357
			L205.734,142.184z"/>
		<path style="fill:#263238;" d="M205.164,141c-0.02,0.675,0.322,1.236,0.763,1.254c0.441,0.017,0.815-0.516,0.835-1.191
			c0.02-0.675-0.322-1.236-0.763-1.254C205.558,139.792,205.184,140.325,205.164,141z"/>
		<path style="fill:#263238;" d="M205.803,139.839l1.636-0.404C207.439,139.435,206.57,140.669,205.803,139.839z"/>
		<polygon style="fill:#FFC3BD;" points="175.473,407.685 183.849,407.685 183.001,388.288 174.625,388.288 		"/>
		<path style="fill:#263238;" d="M184.503,406.716h-9.411c-0.342,0-0.618,0.238-0.663,0.572l-0.999,7.445
			c-0.104,0.772,0.568,1.503,1.358,1.49c3.28-0.056,4.859-0.249,8.998-0.249c2.546,0,6.268,0.264,9.784,0.264
			c3.439,0,3.669-3.477,2.202-3.791c-6.578-1.412-7.634-3.359-9.864-5.216C185.506,406.896,185.004,406.716,184.503,406.716z"/>
		<g style="opacity:0.2;">
			<polygon points="174.623,388.293 183.003,388.293 183.436,398.292 175.056,398.292 			"/>
		</g>
		<path style="fill:#FFC3BD;" d="M217.455,176.752c1.779,4.093,3.695,8.276,5.641,12.336c2.003,4.027,4.057,8.073,6.392,11.65
			c0.288,0.452,0.577,0.902,0.883,1.305l0.787,1.095c0.228,0.284,0.263,0.347,0.637,0.48c0.787,0.249,2.744-0.234,4.504-1.112
			c3.648-1.755,7.329-4.59,10.708-7.397l3.148,2.844c-0.748,1.025-1.491,1.929-2.289,2.85c-0.791,0.913-1.602,1.817-2.477,2.666
			c-1.747,1.704-3.588,3.373-5.796,4.805c-1.107,0.712-2.302,1.381-3.688,1.914c-1.387,0.508-2.999,0.934-4.937,0.788
			c-0.961-0.08-1.99-0.325-2.943-0.779c-0.957-0.448-1.809-1.09-2.49-1.789c-0.151-0.16-0.367-0.386-0.458-0.5l-0.307-0.372
			l-0.613-0.745c-0.423-0.497-0.793-0.999-1.161-1.501c-2.97-4.02-5.286-8.17-7.492-12.382c-2.193-4.222-4.167-8.447-5.968-12.894
			L217.455,176.752z"/>
		<path style="fill:#FFC3BD;" d="M247.081,194.871l3.946-1.901l2.35,6.251c0,0-5.859,2.054-8.646-0.236l0.144-1.072
			C245.053,196.592,245.881,195.449,247.081,194.871z"/>
		<polygon style="fill:#FFC3BD;" points="256.858,192.883 257.574,197.493 253.378,199.221 251.027,192.97 		"/>
		<path style="fill:#FFC3BD;" d="M182.525,137.792c0.266,8.311,0.201,11.833,4.265,16.253c6.113,6.649,16.261,4.605,18.484-3.593
			c2-7.38,1.23-19.731-6.792-23.349C190.578,123.537,182.259,129.481,182.525,137.792z"/>
		<path style="fill:#263238;" d="M180.244,127.927c3.5-6.333,18.823-6.677,24.013,0.406c5.19,7.083-2.264,6.889-4.274,13.851
			c0.247,6.399,2.848,9.147,6.639,12.802c-5.833,6.917-29.702,8.014-33.452,0.014S169.161,126.927,180.244,127.927z"/>
		<path style="fill:#263238;" d="M180.516,128.657c0,0,0.56-2.591-2.667-2.342C179.295,127.112,180.516,128.657,180.516,128.657z"/>
		<path style="fill:#FFC3BD;" d="M198.504,141.64c0.123,1.615,0.955,3.154,1.945,4.172c1.49,1.532,3.015,0.645,3.255-1.166
			c0.216-1.63-0.299-4.39-2.109-5.262C199.813,138.527,198.363,139.794,198.504,141.64z"/>
		<path style="fill:#263238;" d="M200.264,219.122c0,0-4.295,57.491-9.02,89.892c-3.816,26.17-6.427,87.342-6.427,87.342h-11.423
			c0,0-6.024-59.077-4.211-84.961c4.588-65.498-4.704-77.09,6.045-92.272H200.264z"/>
		<path style="opacity:0.2;" d="M187.29,253.167c-0.232,13.729,4.8,26.389,7.094,30.577c1.23-11.22,2.344-22.93,3.273-33.26
			C194.032,238.783,187.508,240.215,187.29,253.167z"/>
		<polygon style="fill:#407BFF;" points="186.383,396.582 171.834,396.582 171.02,391.478 186.411,390.957 		"/>
		<path style="fill:#407BFF;" d="M188.257,392.768c-0.041-0.056-0.05-0.131-0.021-0.195c0.033-0.077,0.112-0.124,0.196-0.117
			c0.424,0.034,4.161,0.363,4.743,1.383c0.113,0.198,0.117,0.414,0.011,0.626c-0.176,0.354-0.449,0.565-0.81,0.628
			c-1.199,0.209-3.079-1.348-4.093-2.295C188.273,392.788,188.265,392.778,188.257,392.768z M192.806,393.993
			c-0.386-0.536-2.335-0.919-3.813-1.085c1.422,1.246,2.639,1.911,3.311,1.793c0.235-0.041,0.407-0.177,0.527-0.417
			c0.046-0.093,0.046-0.171,0-0.252C192.823,394.019,192.815,394.006,192.806,393.993z"/>
		<path style="fill:#407BFF;" d="M188.257,392.768c-0.008-0.012-0.016-0.024-0.021-0.038c-0.028-0.065-0.02-0.139,0.022-0.195
			c0.057-0.077,1.4-1.885,2.756-2.069c0.415-0.056,0.791,0.042,1.116,0.293c0.439,0.339,0.429,0.66,0.343,0.87
			c-0.364,0.886-2.992,1.369-4.079,1.221C188.338,392.842,188.289,392.812,188.257,392.768z M192.06,391.24
			c-0.035-0.049-0.09-0.105-0.172-0.169c-0.241-0.185-0.508-0.255-0.818-0.213c-0.891,0.121-1.834,1.119-2.26,1.623
			c1.19,0.018,3.076-0.475,3.294-1.007C192.118,391.443,192.15,391.365,192.06,391.24z"/>
		<polygon style="fill:#FFC3BD;" points="179.637,389.337 187.364,392.663 190.637,385.524 194.912,376.175 195.414,375.089 
			187.695,371.757 187.127,372.981 182.982,382.034 		"/>
		<polygon style="opacity:0.2;" points="182.982,382.034 190.637,385.524 194.912,376.175 187.127,372.981 		"/>
		<path style="fill:#263238;" d="M209.248,219.122c0,0,13.095,57.14,13.38,86.545c0.258,26.575-28.751,77.11-28.751,77.11
			l-10.484-4.754c0,0,18.804-60.836,16.931-69.356c-5.433-24.717-14.606-78-14.622-89.545L209.248,219.122z"/>
		<path style="fill:#263238;" d="M188.458,391.541l-8.024-4.996c-0.292-0.182-0.653-0.128-0.869,0.13l-4.805,5.74
			c-0.498,0.595-0.314,1.567,0.367,1.975c2.827,1.694,4.276,2.37,7.804,4.567c2.171,1.352,6.523,4.372,9.52,6.238
			c2.932,1.826,4.974-0.98,3.891-2.024c-4.859-4.681-6.045-7.703-6.96-10.451C189.218,392.225,188.885,391.807,188.458,391.541z"/>
		<polygon style="fill:#407BFF;" points="194.639,384.919 181.135,379.372 182.574,373.921 197.035,379.843 		"/>
		<path style="fill:#407BFF;" d="M179.034,177.708c0.169-4.82-2.958-10.917-10.335-9.382c-3.48,0.724-7.069,13.28-7.069,13.28
			l9.405,11.025C174.264,191.132,178.928,180.762,179.034,177.708z"/>
		<path style="opacity:0.2;" d="M172.578,179c0,0,0.09,6.44-1.59,13.58l0.05,0.05c1.92-0.89,4.34-4.92,6.01-8.67L172.578,179z"/>
		<path style="fill:#407BFF;" d="M212.754,168.567c0,0,4.004,1.405-3.505,50.555c-13.499,0-27.451,0-34.019,0
			c0.435-13.846,0.367-22.383-6.53-50.798c0,0,7.113-1.551,14.427-1.903c5.722-0.276,10.41-0.459,15.448,0.001
			C205.214,167.027,212.754,168.567,212.754,168.567z"/>
		<path style="opacity:0.2;" d="M212.518,185.39l-5.26,0.67c0.33,3.99,2.9,8.76,4.97,11.29c0.43-3.66,0.75-6.85,0.99-9.63
			C212.848,186.28,212.518,185.39,212.518,185.39z"/>
		<path style="fill:#407BFF;" d="M212.754,168.567c4.173,1.015,9.409,12.445,9.409,12.445l-8.342,13.155
			c0,0-10.601-7.917-10.497-19.369C203.367,169.987,207.691,167.335,212.754,168.567z"/>
		<g>
			<path style="fill:#407BFF;" d="M174.7,217.125l-1.504,3.045c-0.117,0.236,0.165,0.477,0.559,0.477h35.677
				c0.307,0,0.559-0.15,0.577-0.343l0.277-3.045c0.019-0.211-0.248-0.39-0.584-0.39h-34.45
				C174.998,216.87,174.775,216.973,174.7,217.125z"/>
			<path style="opacity:0.2;fill:#FFFFFF;" d="M174.7,217.125l-1.504,3.045c-0.117,0.236,0.165,0.477,0.559,0.477h35.677
				c0.307,0,0.559-0.15,0.577-0.343l0.277-3.045c0.019-0.211-0.248-0.39-0.584-0.39h-34.45
				C174.998,216.87,174.775,216.973,174.7,217.125z"/>
		</g>
		<path style="fill:#263238;" d="M179.365,220.977h-0.923c-0.184,0-0.325-0.095-0.313-0.21l0.394-3.956
			c0.012-0.116,0.171-0.21,0.355-0.21h0.923c0.184,0,0.325,0.095,0.313,0.21l-0.394,3.956
			C179.708,220.883,179.548,220.977,179.365,220.977z"/>
		<path style="fill:#263238;" d="M201.728,220.977h-0.923c-0.184,0-0.325-0.095-0.313-0.21l0.394-3.956
			c0.012-0.116,0.171-0.21,0.355-0.21h0.923c0.184,0,0.325,0.095,0.313,0.21l-0.394,3.956
			C202.072,220.883,201.912,220.977,201.728,220.977z"/>
	</g>
</g>
</svg>
